#!OML:ASF H:\Terrain\Patient Classification 1\Walking\steve\steve.ASF
:FULLY-SPECIFIED
:DEGREES
16
root 8.11777 15.1346 -34.4721 8.36763 -9.14811 -5.95363
lowerback -0.649396 4.9632 3.72759
upperback -3.2221 6.69811 1.39486
thorax -2.69903 3.2712 -0.735566
lowerneck -10.785 -0.808311 -4.25605
upperneck 9.64227 -0.708165 2.45284
head 4.67989 -0.350473 1.4001
rclavicle 4.88948e-014 1.48592e-014
rhumerus -9.20538 7.36685 -83.3499
rradius 54.3287
rwrist -19.5641
rhand -20.9471 -36.0219
rfingers 7.12502
rthumb 5.42543 -65.9325
lclavicle 4.88948e-014 1.48592e-014
lhumerus -72.6132 23.4081 45.5014
lradius 10.2974
lwrist -23.3916
lhand -11.4284 -11.8073
lfingers 7.12502
lthumb 14.6078 17.6583
rfemur 11.8435 3.2037 23.8627
rtibia 18.8612
rfoot 2.5776 19.475
rtoes 14.3228
lfemur -38.2123 3.07763 -9.95251
ltibia 17.2014
lfoot -10.8019 8.00238
ltoes -12.4091
17
root 8.14845 15.1411 -34.1947 8.3414 -9.00325 -5.84028
lowerback -0.75506 4.95482 3.5792
upperback -3.34421 6.68029 1.21394
thorax -2.76145 3.26166 -0.835406
lowerneck -10.5409 -0.857732 -4.01424
upperneck 9.39421 -0.83803 2.61011
head 4.56672 -0.395774 1.40001
rclavicle -4.3509e-014 -1.25234e-014
rhumerus -10.1131 7.00385 -83.4089
rradius 55.0122
rwrist -19.6707
rhand -21.0842 -36.2576
rfingers 7.12502
rthumb 5.29301 -66.1715
lclavicle -4.3509e-014 -1.25234e-014
lhumerus -72.1878 23.2179 45.6218
lradius 9.70421
lwrist -23.2707
lhand -11.3297 -11.1104
lfingers 7.12502
lthumb 14.7028 18.3482
rfemur 12.1446 3.78946 23.8563
rtibia 19.6624
rfoot 4.31504 17.7932
rtoes 8.93978
lfemur -38.9085 3.13325 -10.3542
ltibia 19.6483
lfoot -8.8593 8.2771
ltoes -12.9609
18
root 8.17686 15.1564 -33.9182 8.38847 -8.79526 -5.44172
lowerback -0.913732 4.87928 2.98328
upperback -3.52692 6.56911 1.0378
thorax -2.90948 3.21614 -0.685822
lowerneck -9.8123 -0.759533 -3.78071
upperneck 8.67818 -0.792839 2.92058
head 4.22469 -0.349337 1.45999
rclavicle -3.01947e-014 -1.39149e-014
rhumerus -11.1578 6.64297 -83.424
rradius 55.6606
rwrist -19.8382
rhand -20.2507 -35.3219
rfingers 7.12502
rthumb 6.09781 -65.2141
lclavicle -3.01947e-014 -1.39149e-014
lhumerus -71.9416 23.2042 45.7649
lradius 9.16774
lwrist -22.8749
lhand -11.1638 -10.1533
lfingers 7.12502
lthumb 14.8627 19.2936
rfemur 12.1955 4.48499 23.5936
rtibia 20.953
rfoot 6.30386 15.4856
rtoes 8.84331
lfemur -39.7223 3.01052 -10.9446
ltibia 21.8459
lfoot -6.97 7.87459
ltoes -17.3771
19
root 8.19715 15.1747 -33.6414 8.58756 -8.52875 -4.61978
lowerback -1.43415 4.76787 1.79082
upperback -3.65012 6.39272 0.801613
thorax -2.85003 3.15867 -0.23521
lowerneck -9.54939 -0.648314 -5.23579
upperneck 8.26407 -0.641389 4.8376
head 4.05918 -0.216257 2.29648
rclavicle 3.35453e-014 -1.88845e-015
rhumerus -12.0244 6.28446 -83.4649
rradius 56.0891
rwrist -19.8168
rhand -19.8491 -34.7195
rfingers 7.12502
rthumb 6.48548 -64.6002
lclavicle 3.35453e-014 -1.88845e-015
lhumerus -71.3752 23.4564 46.0666
lradius 8.36504
lwrist -22.5849
lhand -11.7563 -8.48602
lfingers 7.12502
lthumb 14.2919 21.0021
rfemur 11.9564 5.10707 22.919
rtibia 22.6177
rfoot 7.04357 13.6573
rtoes 17.9572
lfemur -40.6055 2.90867 -12.0907
ltibia 23.9869
lfoot -5.66757 6.81481
ltoes -17.9354
20
root 8.21495 15.1949 -33.3639 8.74555 -8.29687 -3.74812
lowerback -1.87983 4.73301 0.629647
upperback -3.77686 6.33072 0.493005
thorax -2.82126 3.15597 0.117409
lowerneck -11.1737 -1.16787 -5.06628
upperneck 9.94253 -1.29906 4.51884
head 4.87529 -0.536401 2.13356
rclavicle -2.06088e-014 -2.44505e-014
rhumerus -13.0637 5.68829 -83.4885
rradius 56.5199
rwrist -19.7865
rhand -20.2325 -34.3434
rfingers 7.12502
rthumb 6.11536 -64.2351
lclavicle -2.06088e-014 -2.44505e-014
lhumerus -70.747 23.4716 46.4992
lradius 7.99642
lwrist -22.3445
lhand -13.5956 -9.234
lfingers 7.12502
lthumb 12.519 20.371
rfemur 11.0452 5.43611 22.1664
rtibia 25.0439
rfoot 8.20957 11.9877
rtoes 8.87684
lfemur -41.0818 2.8951 -13.3219
ltibia 25.8734
lfoot -4.643 6.06319
ltoes -15.9004
21
root 8.23865 15.1987 -33.0972 8.66458 -8.10134 -3.42124
lowerback -1.61932 4.7042 0.0850951
upperback -4.04638 6.29321 0.322723
thorax -3.28582 3.14831 0.202112
lowerneck -11.6031 -1.36556 -5.0625
upperneck 10.6054 -1.59632 4.76816
head 5.16919 -0.660614 2.19094
rclavicle -2.07986e-014 -1.17283e-014
rhumerus -14.553 5.28651 -83.5964
rradius 56.9918
rwrist -19.8278
rhand -20.8799 -34.4258
rfingers 7.12502
rthumb 5.49033 -64.3347
lclavicle -2.07986e-014 -1.17283e-014
lhumerus -70.5624 23.0997 46.6455
lradius 8.09812
lwrist -21.8304
lhand -14.827 -8.30682
lfingers 7.12502
lthumb 11.3316 21.3671
rfemur 9.99606 5.76377 21.9747
rtibia 28.0621
rfoot 10.358 9.392
rtoes 3.5887
lfemur -41.1126 3.22521 -14.096
ltibia 27.56
lfoot -3.63444 5.56069
ltoes -12.8847
22
root 8.26234 15.1904 -32.8358 8.37242 -7.9874 -3.08966
lowerback -1.77783 4.5708 -0.266203
upperback -3.84627 6.10609 0.102314
thorax -3.00042 3.06194 0.197226
lowerneck -11.6487 -1.32788 -4.9482
upperneck 10.344 -1.59835 5.10511
head 5.09748 -0.633674 2.27668
rclavicle 4.28393e-014 2.5842e-015
rhumerus -15.4285 5.18485 -83.9825
rradius 57.2672
rwrist -19.8819
rhand -21.0145 -35.0738
rfingers 7.12502
rthumb 5.36031 -64.986
lclavicle 4.28393e-014 2.5842e-015
lhumerus -69.8482 23.3984 46.6231
lradius 7.67581
lwrist -21.3645
lhand -15.761 -7.61797
lfingers 7.12502
lthumb 10.4307 22.1033
rfemur 9.1777 6.05311 21.7089
rtibia 31.1054
rfoot 12.9423 6.68021
rtoes 2.6524
lfemur -40.9849 3.79263 -15.0318
ltibia 29.3593
lfoot -3.29206 4.74619
ltoes -7.15319
